<?xml version="1.0" encoding="utf-8"?>
<!-- Generator: Adobe Illustrator 19.0.0, SVG Export Plug-In . SVG Version: 6.00 Build 0)  -->
<svg version="1.1" id="Layer_1" xmlns="http://www.w3.org/2000/svg" xmlns:xlink="http://www.w3.org/1999/xlink" x="0px" y="0px"
	 viewBox="0 0 1077.4 423.2" style="enable-background:new 0 0 1077.4 423.2;" xml:space="preserve">
<style type="text/css">
	.st0{clip-path:url(#SVGID_2_);fill-rule:evenodd;clip-rule:evenodd;fill:#191DBE;}
	.st1{clip-path:url(#SVGID_2_);fill-rule:evenodd;clip-rule:evenodd;fill:#FFFFFF;}
	.st2{clip-path:url(#SVGID_2_);fill:#191DBE;}
</style>
<g>
	<defs>
		<rect id="SVGID_1_" width="1077.4" height="423.2"/>
	</defs>
	<clipPath id="SVGID_2_">
		<use xlink:href="#SVGID_1_"  style="overflow:visible;"/>
	</clipPath>
	<path class="st0" d="M0,125.3V298c0,69.1,56.1,125.3,125.3,125.3h826.9c69.1,0,125.3-56.1,125.3-125.3V125.3
		C1077.4,56.1,1021.3,0,952.2,0H125.3C56.1,0,0,56.1,0,125.3"/>
	<path class="st1" d="M39,126.2v175.1c0,47.7,38.7,86.4,86.4,86.4h828.9c47.7,0,86.4-38.7,86.4-86.4V126.2
		c0-47.7-38.7-86.4-86.4-86.4H125.5C77.8,39.8,39,78.5,39,126.2"/>
	<path class="st2" d="M166.8,142.2h-35.4c-0.6-2.8-1-5.8-1.3-9.1c-0.3-3.3-0.4-6.5-0.4-9.7c0-6.4,0.6-12.4,1.8-18.2h78.9v157.3
		c0,10.9-1.7,20.2-5.2,27.8c-3.5,7.6-8.2,13.9-14.3,18.8c-6.1,4.9-13.2,8.4-21.4,10.6c-8.2,2.2-17.2,3.3-26.9,3.3
		c-3.4,0-7.6-0.3-12.7-0.9c-5.1-0.6-9.9-1.5-14.4-2.7c-0.2-1.4-0.3-2.8-0.4-4.2c-0.1-1.4-0.1-2.9-0.1-4.5c0-9.1,1.7-18.3,5.1-27.4
		c2.2,0.4,4.6,0.9,7.1,1.5c2.6,0.6,5.3,0.9,8,0.9c3.4,0,6.9-0.2,10.7-0.6c3.8-0.4,7.2-1.6,10.3-3.6c3.1-2,5.7-4.9,7.7-8.8
		c2.1-3.9,3.1-9.4,3.1-16.5V142.2z"/>
	<path class="st2" d="M337.8,286.6c30.8,0,46.2-24.6,46.2-73.9c0-24.6-3.7-43.1-11.2-55.4c-7.4-12.3-19-18.5-34.7-18.5
		c-31.2,0-46.8,24.6-46.8,73.9S306.8,286.6,337.8,286.6 M337.8,323c-16.1,0-30-2.8-41.7-8.3c-11.7-5.6-21.3-13.3-28.9-23.1
		c-7.5-9.8-13.2-21.4-16.8-34.8c-3.7-13.4-5.5-28-5.5-43.9s1.8-30.6,5.5-44.2c3.7-13.6,9.3-25.4,16.8-35.3
		c7.5-9.9,17.2-17.7,28.9-23.2c11.7-5.6,25.6-8.3,41.7-8.3c16.1,0,30,2.8,41.7,8.3c11.7,5.6,21.3,13.3,28.9,23.2
		c7.5,9.9,13.2,21.7,16.8,35.3c3.7,13.6,5.5,28.3,5.5,44.2s-1.8,30.5-5.5,43.9c-3.7,13.4-9.3,25-16.8,34.8
		c-7.5,9.8-17.2,17.5-28.9,23.1C367.7,320.2,353.8,323,337.8,323"/>
	<path class="st2" d="M523.6,191.9c5,0,9.6-0.4,13.8-1.3c4.3-0.9,8-2.5,11.2-4.8c3.2-2.3,5.7-5.4,7.4-9.2c1.8-3.9,2.7-8.8,2.7-14.7
		c0-5.8-1-10.5-3.1-14.1c-2.1-3.7-4.8-6.6-8-8.6c-3.3-2.1-6.9-3.5-11-4.2c-4.1-0.7-8.1-1-12.1-1c-5.6,0-10.2,0.3-14,0.9v57.2H523.6z
		 M510.5,286.6c2.8,0.4,6,0.7,9.7,0.9c3.7,0.2,7,0.3,10,0.3c4.2,0,8.5-0.4,13.1-1.2c4.6-0.8,8.8-2.3,12.8-4.6c4-2.3,7.2-5.5,9.8-9.5
		c2.6-4.1,3.9-9.4,3.9-15.9c0-6.2-1-11.3-3-15.3c-2-4.1-4.8-7.3-8.5-9.8c-3.7-2.5-8-4.2-13.1-5.2c-5.1-1-10.7-1.5-16.8-1.5h-17.9
		V286.6z M467.3,105c6.4-1,13.7-1.8,22-2.4c8.3-0.6,18.8-0.9,31.3-0.9c10.9,0,21.2,0.9,31,2.7c9.7,1.8,18.2,4.8,25.5,9.1
		c7.2,4.3,13,10,17.1,17.1c4.2,7.1,6.3,16.1,6.3,26.8c0,6.4-0.9,12.3-2.8,17.7c-1.9,5.5-4.4,10.2-7.6,14.3
		c-3.2,4.1-6.8,7.4-10.7,10.1c-4,2.7-8,4.3-12.2,4.9c4.6,0.6,9.6,2,15.2,4.2c5.6,2.2,10.7,5.4,15.5,9.7c4.8,4.3,8.7,9.8,11.9,16.5
		c3.2,6.8,4.8,14.9,4.8,24.4c0,12.9-2.4,23.5-7.3,31.7c-4.9,8.2-11.4,14.7-19.7,19.5c-8.2,4.8-17.8,8-28.6,9.8
		c-10.8,1.8-22.2,2.7-34.1,2.7c-9.1,0-18.2-0.2-27.1-0.7c-8.9-0.5-19.1-1.4-30.4-2.8V105z"/>
	<path class="st2" d="M646.9,105.3h121.5c1.2,6,1.8,12,1.8,18.2c0,6.6-0.6,12.8-1.8,18.8h-78v46.5h61.9c1.2,6.4,1.8,12.5,1.8,18.5
		c0,6.4-0.6,12.6-1.8,18.8h-61.9v56.6h80.1c1.2,6,1.8,12,1.8,18.2c0,6.6-0.6,12.8-1.8,18.8H646.9V105.3z"/>
	<path class="st2" d="M807,105.3c8.7-1,16.9-1.8,24.6-2.5s16.1-1,25.5-1c10.9,0,21.7,1,32.3,3c10.6,2,20.2,5.5,28.7,10.6
		c8.5,5.1,15.4,11.9,20.7,20.5c5.3,8.6,7.9,19.6,7.9,32.9c0,7.9-1,14.9-3,21c-2,6.1-4.5,11.4-7.6,15.9c-3.1,4.6-6.4,8.5-10,11.8
		c-3.6,3.3-6.9,5.9-10.1,7.9l-5.1,3.3l52.1,90.5c-4,0.4-8.1,0.8-12.5,1.2c-4.4,0.4-8.8,0.6-13.4,0.6c-7.5,0-15-0.6-22.3-1.8
		l-56-99.5l7.1-3.6c2.8-1.4,6.2-3.2,10.1-5.4c4-2.2,7.8-4.9,11.5-8.2c3.7-3.3,6.8-7.2,9.4-11.9c2.6-4.7,3.9-10.2,3.9-16.5
		c0-12.5-3.6-21.7-10.7-27.5c-7.1-5.9-16.4-8.8-27.7-8.8c-4.4,0-8.3,0.3-11.9,0.9v180.8c-3.6,0.4-7.1,0.7-10.7,1
		c-3.6,0.3-7,0.4-10.4,0.4c-3.4,0-6.9-0.1-10.7-0.3c-3.8-0.2-7.6-0.6-11.6-1.2V105.3z"/>
</g>
</svg>
